<?xml version="1.0" encoding="UTF-8" standalone="no"?>
<svg
   version="1.1"
   id="Layer_1"
   x="0px"
   y="0px"
   viewBox="0 0 735 852"
   style="enable-background:new 0 0 735 852;"
   xml:space="preserve"
   sodipodi:docname="logo.svg"
   inkscape:version="1.1.1 (3bf5ae0d25, 2021-09-20, custom)"
   xmlns:inkscape="http://www.inkscape.org/namespaces/inkscape"
   xmlns:sodipodi="http://sodipodi.sourceforge.net/DTD/sodipodi-0.dtd"
   xmlns="http://www.w3.org/2000/svg"
   xmlns:svg="http://www.w3.org/2000/svg"
   xmlns:rdf="http://www.w3.org/1999/02/22-rdf-syntax-ns#"
   xmlns:cc="http://creativecommons.org/ns#"
   xmlns:dc="http://purl.org/dc/elements/1.1/"><title
   id="title323">xronos</title><metadata
   id="metadata58"><rdf:RDF><cc:Work
       rdf:about=""><dc:format>image/svg+xml</dc:format><dc:type
         rdf:resource="http://purl.org/dc/dcmitype/StillImage" /><dc:title>xronos</dc:title></cc:Work></rdf:RDF></metadata><defs
   id="defs56"><marker
     style="overflow:visible;"
     id="marker2487"
     refX="0.0"
     refY="0.0"
     orient="auto"
     inkscape:stockid="Arrow1Send"
     inkscape:isstock="true"><path
       transform="scale(0.2) rotate(180) translate(6,0)"
       style="fill-rule:evenodd;stroke:#79740e;stroke-width:1pt;stroke-opacity:1;fill:#79740e;fill-opacity:1"
       d="M 0.0,0.0 L 5.0,-5.0 L -12.5,0.0 L 5.0,5.0 L 0.0,0.0 z "
       id="path2485" /></marker><marker
     style="overflow:visible;"
     id="marker2477"
     refX="0.0"
     refY="0.0"
     orient="auto"
     inkscape:stockid="Arrow1Send"
     inkscape:isstock="true"><path
       transform="scale(0.2) rotate(180) translate(6,0)"
       style="fill-rule:evenodd;stroke:#79740e;stroke-width:1pt;stroke-opacity:1;fill:#79740e;fill-opacity:1"
       d="M 0.0,0.0 L 5.0,-5.0 L -12.5,0.0 L 5.0,5.0 L 0.0,0.0 z "
       id="path2475" /></marker><marker
     style="overflow:visible;"
     id="marker2467"
     refX="0.0"
     refY="0.0"
     orient="auto"
     inkscape:stockid="Arrow1Send"
     inkscape:isstock="true"><path
       transform="scale(0.2) rotate(180) translate(6,0)"
       style="fill-rule:evenodd;stroke:#79740e;stroke-width:1pt;stroke-opacity:1;fill:#79740e;fill-opacity:1"
       d="M 0.0,0.0 L 5.0,-5.0 L -12.5,0.0 L 5.0,5.0 L 0.0,0.0 z "
       id="path2465" /></marker><marker
     style="overflow:visible;"
     id="marker2457"
     refX="0.0"
     refY="0.0"
     orient="auto"
     inkscape:stockid="Arrow1Send"
     inkscape:isstock="true"><path
       transform="scale(0.2) rotate(180) translate(6,0)"
       style="fill-rule:evenodd;stroke:#79740e;stroke-width:1pt;stroke-opacity:1;fill:#79740e;fill-opacity:1"
       d="M 0.0,0.0 L 5.0,-5.0 L -12.5,0.0 L 5.0,5.0 L 0.0,0.0 z "
       id="path2455" /></marker><marker
     style="overflow:visible;"
     id="marker2447"
     refX="0.0"
     refY="0.0"
     orient="auto"
     inkscape:stockid="Arrow1Send"
     inkscape:isstock="true"><path
       transform="scale(0.2) rotate(180) translate(6,0)"
       style="fill-rule:evenodd;stroke:#79740e;stroke-width:1pt;stroke-opacity:1;fill:#79740e;fill-opacity:1"
       d="M 0.0,0.0 L 5.0,-5.0 L -12.5,0.0 L 5.0,5.0 L 0.0,0.0 z "
       id="path2445" /></marker><marker
     style="overflow:visible"
     id="marker2249"
     refX="0.0"
     refY="0.0"
     orient="auto"
     inkscape:stockid="TriangleOutS"
     inkscape:isstock="true"><path
       transform="scale(0.2)"
       style="fill-rule:evenodd;stroke:#79740e;stroke-width:1pt;stroke-opacity:1;fill:#79740e;fill-opacity:1"
       d="M 5.77,0.0 L -2.88,5.0 L -2.88,-5.0 L 5.77,0.0 z "
       id="path2247" /></marker><marker
     style="overflow:visible"
     id="marker2239"
     refX="0.0"
     refY="0.0"
     orient="auto"
     inkscape:stockid="TriangleOutS"
     inkscape:isstock="true"><path
       transform="scale(0.2)"
       style="fill-rule:evenodd;stroke:#79740e;stroke-width:1pt;stroke-opacity:1;fill:#79740e;fill-opacity:1"
       d="M 5.77,0.0 L -2.88,5.0 L -2.88,-5.0 L 5.77,0.0 z "
       id="path2237" /></marker><marker
     style="overflow:visible"
     id="marker2229"
     refX="0.0"
     refY="0.0"
     orient="auto"
     inkscape:stockid="TriangleOutS"
     inkscape:isstock="true"><path
       transform="scale(0.2)"
       style="fill-rule:evenodd;stroke:#79740e;stroke-width:1pt;stroke-opacity:1;fill:#79740e;fill-opacity:1"
       d="M 5.77,0.0 L -2.88,5.0 L -2.88,-5.0 L 5.77,0.0 z "
       id="path2227" /></marker><marker
     style="overflow:visible"
     id="marker2219"
     refX="0.0"
     refY="0.0"
     orient="auto"
     inkscape:stockid="TriangleOutS"
     inkscape:isstock="true"><path
       transform="scale(0.2)"
       style="fill-rule:evenodd;stroke:#79740e;stroke-width:1pt;stroke-opacity:1;fill:#79740e;fill-opacity:1"
       d="M 5.77,0.0 L -2.88,5.0 L -2.88,-5.0 L 5.77,0.0 z "
       id="path2217" /></marker><marker
     style="overflow:visible"
     id="marker2209"
     refX="0.0"
     refY="0.0"
     orient="auto"
     inkscape:stockid="TriangleOutS"
     inkscape:isstock="true"><path
       transform="scale(0.2)"
       style="fill-rule:evenodd;stroke:#79740e;stroke-width:1pt;stroke-opacity:1;fill:#79740e;fill-opacity:1"
       d="M 5.77,0.0 L -2.88,5.0 L -2.88,-5.0 L 5.77,0.0 z "
       id="path2207" /></marker><marker
     style="overflow:visible;"
     id="marker2041"
     refX="0.0"
     refY="0.0"
     orient="auto"
     inkscape:stockid="Arrow2Mend"
     inkscape:isstock="true"><path
       transform="scale(0.6) rotate(180) translate(0,0)"
       d="M 8.7185878,4.0337352 L -2.2072895,0.016013256 L 8.7185884,-4.0017078 C 6.9730900,-1.6296469 6.9831476,1.6157441 8.7185878,4.0337352 z "
       style="fill-rule:evenodd;stroke-width:0.625;stroke-linejoin:round;stroke:#79740e;stroke-opacity:1;fill:#79740e;fill-opacity:1"
       id="path2039" /></marker><marker
     style="overflow:visible;"
     id="marker2031"
     refX="0.0"
     refY="0.0"
     orient="auto"
     inkscape:stockid="Arrow2Mend"
     inkscape:isstock="true"><path
       transform="scale(0.6) rotate(180) translate(0,0)"
       d="M 8.7185878,4.0337352 L -2.2072895,0.016013256 L 8.7185884,-4.0017078 C 6.9730900,-1.6296469 6.9831476,1.6157441 8.7185878,4.0337352 z "
       style="fill-rule:evenodd;stroke-width:0.625;stroke-linejoin:round;stroke:#79740e;stroke-opacity:1;fill:#79740e;fill-opacity:1"
       id="path2029" /></marker><marker
     style="overflow:visible;"
     id="marker2021"
     refX="0.0"
     refY="0.0"
     orient="auto"
     inkscape:stockid="Arrow2Mend"
     inkscape:isstock="true"><path
       transform="scale(0.6) rotate(180) translate(0,0)"
       d="M 8.7185878,4.0337352 L -2.2072895,0.016013256 L 8.7185884,-4.0017078 C 6.9730900,-1.6296469 6.9831476,1.6157441 8.7185878,4.0337352 z "
       style="fill-rule:evenodd;stroke-width:0.625;stroke-linejoin:round;stroke:#79740e;stroke-opacity:1;fill:#79740e;fill-opacity:1"
       id="path2019" /></marker><marker
     style="overflow:visible;"
     id="marker2011"
     refX="0.0"
     refY="0.0"
     orient="auto"
     inkscape:stockid="Arrow2Mend"
     inkscape:isstock="true"><path
       transform="scale(0.6) rotate(180) translate(0,0)"
       d="M 8.7185878,4.0337352 L -2.2072895,0.016013256 L 8.7185884,-4.0017078 C 6.9730900,-1.6296469 6.9831476,1.6157441 8.7185878,4.0337352 z "
       style="fill-rule:evenodd;stroke-width:0.625;stroke-linejoin:round;stroke:#79740e;stroke-opacity:1;fill:#79740e;fill-opacity:1"
       id="path2009" /></marker><marker
     style="overflow:visible;"
     id="marker2001"
     refX="0.0"
     refY="0.0"
     orient="auto"
     inkscape:stockid="Arrow2Mend"
     inkscape:isstock="true"><path
       transform="scale(0.6) rotate(180) translate(0,0)"
       d="M 8.7185878,4.0337352 L -2.2072895,0.016013256 L 8.7185884,-4.0017078 C 6.9730900,-1.6296469 6.9831476,1.6157441 8.7185878,4.0337352 z "
       style="fill-rule:evenodd;stroke-width:0.625;stroke-linejoin:round;stroke:#79740e;stroke-opacity:1;fill:#79740e;fill-opacity:1"
       id="path1999" /></marker><marker
     style="overflow:visible;"
     id="marker1863"
     refX="0.0"
     refY="0.0"
     orient="auto"
     inkscape:stockid="Arrow1Send"
     inkscape:isstock="true"><path
       transform="scale(0.2) rotate(180) translate(6,0)"
       style="fill-rule:evenodd;stroke:#79740e;stroke-width:1pt;stroke-opacity:1;fill:#79740e;fill-opacity:1"
       d="M 0.0,0.0 L 5.0,-5.0 L -12.5,0.0 L 5.0,5.0 L 0.0,0.0 z "
       id="path1861" /></marker><marker
     style="overflow:visible;"
     id="marker1853"
     refX="0.0"
     refY="0.0"
     orient="auto"
     inkscape:stockid="Arrow1Send"
     inkscape:isstock="true"><path
       transform="scale(0.2) rotate(180) translate(6,0)"
       style="fill-rule:evenodd;stroke:#79740e;stroke-width:1pt;stroke-opacity:1;fill:#79740e;fill-opacity:1"
       d="M 0.0,0.0 L 5.0,-5.0 L -12.5,0.0 L 5.0,5.0 L 0.0,0.0 z "
       id="path1851" /></marker><marker
     style="overflow:visible;"
     id="marker1843"
     refX="0.0"
     refY="0.0"
     orient="auto"
     inkscape:stockid="Arrow1Send"
     inkscape:isstock="true"><path
       transform="scale(0.2) rotate(180) translate(6,0)"
       style="fill-rule:evenodd;stroke:#79740e;stroke-width:1pt;stroke-opacity:1;fill:#79740e;fill-opacity:1"
       d="M 0.0,0.0 L 5.0,-5.0 L -12.5,0.0 L 5.0,5.0 L 0.0,0.0 z "
       id="path1841" /></marker><marker
     style="overflow:visible;"
     id="marker1833"
     refX="0.0"
     refY="0.0"
     orient="auto"
     inkscape:stockid="Arrow1Send"
     inkscape:isstock="true"><path
       transform="scale(0.2) rotate(180) translate(6,0)"
       style="fill-rule:evenodd;stroke:#79740e;stroke-width:1pt;stroke-opacity:1;fill:#79740e;fill-opacity:1"
       d="M 0.0,0.0 L 5.0,-5.0 L -12.5,0.0 L 5.0,5.0 L 0.0,0.0 z "
       id="path1831" /></marker><marker
     style="overflow:visible;"
     id="marker1823"
     refX="0.0"
     refY="0.0"
     orient="auto"
     inkscape:stockid="Arrow1Send"
     inkscape:isstock="true"><path
       transform="scale(0.2) rotate(180) translate(6,0)"
       style="fill-rule:evenodd;stroke:#79740e;stroke-width:1pt;stroke-opacity:1;fill:#79740e;fill-opacity:1"
       d="M 0.0,0.0 L 5.0,-5.0 L -12.5,0.0 L 5.0,5.0 L 0.0,0.0 z "
       id="path1821" /></marker><marker
     style="overflow:visible;"
     id="marker1715"
     refX="0.0"
     refY="0.0"
     orient="auto"
     inkscape:stockid="Arrow1Mend"
     inkscape:isstock="true"><path
       transform="scale(0.4) rotate(180) translate(10,0)"
       style="fill-rule:evenodd;stroke:#79740e;stroke-width:1pt;stroke-opacity:1;fill:#79740e;fill-opacity:1"
       d="M 0.0,0.0 L 5.0,-5.0 L -12.5,0.0 L 5.0,5.0 L 0.0,0.0 z "
       id="path1713" /></marker><marker
     style="overflow:visible;"
     id="marker1705"
     refX="0.0"
     refY="0.0"
     orient="auto"
     inkscape:stockid="Arrow1Mend"
     inkscape:isstock="true"><path
       transform="scale(0.4) rotate(180) translate(10,0)"
       style="fill-rule:evenodd;stroke:#79740e;stroke-width:1pt;stroke-opacity:1;fill:#79740e;fill-opacity:1"
       d="M 0.0,0.0 L 5.0,-5.0 L -12.5,0.0 L 5.0,5.0 L 0.0,0.0 z "
       id="path1703" /></marker><marker
     style="overflow:visible;"
     id="marker1695"
     refX="0.0"
     refY="0.0"
     orient="auto"
     inkscape:stockid="Arrow1Mend"
     inkscape:isstock="true"><path
       transform="scale(0.4) rotate(180) translate(10,0)"
       style="fill-rule:evenodd;stroke:#79740e;stroke-width:1pt;stroke-opacity:1;fill:#79740e;fill-opacity:1"
       d="M 0.0,0.0 L 5.0,-5.0 L -12.5,0.0 L 5.0,5.0 L 0.0,0.0 z "
       id="path1693" /></marker><marker
     style="overflow:visible;"
     id="marker1685"
     refX="0.0"
     refY="0.0"
     orient="auto"
     inkscape:stockid="Arrow1Mend"
     inkscape:isstock="true"><path
       transform="scale(0.4) rotate(180) translate(10,0)"
       style="fill-rule:evenodd;stroke:#79740e;stroke-width:1pt;stroke-opacity:1;fill:#79740e;fill-opacity:1"
       d="M 0.0,0.0 L 5.0,-5.0 L -12.5,0.0 L 5.0,5.0 L 0.0,0.0 z "
       id="path1683" /></marker><marker
     style="overflow:visible;"
     id="marker1675"
     refX="0.0"
     refY="0.0"
     orient="auto"
     inkscape:stockid="Arrow1Mend"
     inkscape:isstock="true"><path
       transform="scale(0.4) rotate(180) translate(10,0)"
       style="fill-rule:evenodd;stroke:#79740e;stroke-width:1pt;stroke-opacity:1;fill:#79740e;fill-opacity:1"
       d="M 0.0,0.0 L 5.0,-5.0 L -12.5,0.0 L 5.0,5.0 L 0.0,0.0 z "
       id="path1673" /></marker><marker
     style="overflow:visible;"
     id="marker1597"
     refX="0.0"
     refY="0.0"
     orient="auto"
     inkscape:stockid="Arrow1Lend"
     inkscape:isstock="true"><path
       transform="scale(0.8) rotate(180) translate(12.5,0)"
       style="fill-rule:evenodd;stroke:#79740e;stroke-width:1pt;stroke-opacity:1;fill:#79740e;fill-opacity:1"
       d="M 0.0,0.0 L 5.0,-5.0 L -12.5,0.0 L 5.0,5.0 L 0.0,0.0 z "
       id="path1595" /></marker><marker
     style="overflow:visible;"
     id="marker1587"
     refX="0.0"
     refY="0.0"
     orient="auto"
     inkscape:stockid="Arrow1Lend"
     inkscape:isstock="true"><path
       transform="scale(0.8) rotate(180) translate(12.5,0)"
       style="fill-rule:evenodd;stroke:#79740e;stroke-width:1pt;stroke-opacity:1;fill:#79740e;fill-opacity:1"
       d="M 0.0,0.0 L 5.0,-5.0 L -12.5,0.0 L 5.0,5.0 L 0.0,0.0 z "
       id="path1585" /></marker><marker
     style="overflow:visible;"
     id="marker1577"
     refX="0.0"
     refY="0.0"
     orient="auto"
     inkscape:stockid="Arrow1Lend"
     inkscape:isstock="true"><path
       transform="scale(0.8) rotate(180) translate(12.5,0)"
       style="fill-rule:evenodd;stroke:#79740e;stroke-width:1pt;stroke-opacity:1;fill:#79740e;fill-opacity:1"
       d="M 0.0,0.0 L 5.0,-5.0 L -12.5,0.0 L 5.0,5.0 L 0.0,0.0 z "
       id="path1575" /></marker><marker
     style="overflow:visible;"
     id="marker1567"
     refX="0.0"
     refY="0.0"
     orient="auto"
     inkscape:stockid="Arrow1Lend"
     inkscape:isstock="true"><path
       transform="scale(0.8) rotate(180) translate(12.5,0)"
       style="fill-rule:evenodd;stroke:#79740e;stroke-width:1pt;stroke-opacity:1;fill:#79740e;fill-opacity:1"
       d="M 0.0,0.0 L 5.0,-5.0 L -12.5,0.0 L 5.0,5.0 L 0.0,0.0 z "
       id="path1565" /></marker><marker
     style="overflow:visible;"
     id="marker1557"
     refX="0.0"
     refY="0.0"
     orient="auto"
     inkscape:stockid="Arrow1Lend"
     inkscape:isstock="true"><path
       transform="scale(0.8) rotate(180) translate(12.5,0)"
       style="fill-rule:evenodd;stroke:#79740e;stroke-width:1pt;stroke-opacity:1;fill:#79740e;fill-opacity:1"
       d="M 0.0,0.0 L 5.0,-5.0 L -12.5,0.0 L 5.0,5.0 L 0.0,0.0 z "
       id="path1555" /></marker><filter
     style="color-interpolation-filters:sRGB;"
     inkscape:label="Drop Shadow"
     id="filter3205"><feFlood
       flood-opacity="1"
       flood-color="rgb(29,32,33)"
       result="flood"
       id="feFlood3195" /><feComposite
       in="flood"
       in2="SourceGraphic"
       operator="in"
       result="composite1"
       id="feComposite3197" /><feGaussianBlur
       in="composite1"
       stdDeviation="0"
       result="blur"
       id="feGaussianBlur3199" /><feOffset
       dx="-5"
       dy="5"
       result="offset"
       id="feOffset3201" /><feComposite
       in="SourceGraphic"
       in2="offset"
       operator="over"
       result="fbSourceGraphic"
       id="feComposite3203" /><feColorMatrix
       result="fbSourceGraphicAlpha"
       in="fbSourceGraphic"
       values="0 0 0 -1 0 0 0 0 -1 0 0 0 0 -1 0 0 0 0 1 0"
       id="feColorMatrix3207" /><feFlood
       id="feFlood3209"
       flood-opacity="1"
       flood-color="rgb(235,219,178)"
       result="flood"
       in="fbSourceGraphic" /><feComposite
       in2="fbSourceGraphic"
       id="feComposite3211"
       in="flood"
       operator="in"
       result="composite1" /><feGaussianBlur
       id="feGaussianBlur3213"
       in="composite1"
       stdDeviation="0"
       result="blur" /><feOffset
       id="feOffset3215"
       dx="-5"
       dy="5"
       result="offset" /><feComposite
       in2="offset"
       id="feComposite3217"
       in="fbSourceGraphic"
       operator="over"
       result="composite2" /></filter><mask
     maskUnits="userSpaceOnUse"
     id="mask1381"><path
       class="st0"
       d="M 715.1,226.8 366.9,16 19.9,226.8 V 628.3 L 367.5,829 715.1,628.3 Z"
       id="path1383"
       style="fill:#ffffff;fill-opacity:1" /></mask></defs><sodipodi:namedview
   pagecolor="#ffffff"
   bordercolor="#666666"
   borderopacity="1"
   objecttolerance="10"
   gridtolerance="10"
   guidetolerance="10"
   inkscape:pageopacity="0"
   inkscape:pageshadow="2"
   inkscape:window-width="2560"
   inkscape:window-height="1416"
   id="namedview54"
   showgrid="false"
   inkscape:object-paths="true"
   inkscape:zoom="1.4550879"
   inkscape:cx="633.98231"
   inkscape:cy="391.38529"
   inkscape:window-x="2560"
   inkscape:window-y="0"
   inkscape:window-maximized="1"
   inkscape:current-layer="Layer_1"
   inkscape:document-rotation="0"
   inkscape:snap-global="true"
   showguides="false"
   inkscape:guide-bbox="true"
   inkscape:snap-object-midpoints="true"
   inkscape:pagecheckerboard="0"><sodipodi:guide
     position="367.5,852"
     orientation="-1,0"
     id="guide33169"
     inkscape:label=""
     inkscape:locked="false"
     inkscape:color="rgb(0,0,255)" /><sodipodi:guide
     position="0,426"
     orientation="0,1"
     id="guide16229"
     inkscape:label=""
     inkscape:locked="false"
     inkscape:color="rgb(0,0,255)" /></sodipodi:namedview>
<style
   type="text/css"
   id="style2">
	.st0{fill:#428BCA;}
	.st1{opacity:0.25;fill:url(#SVGID_1_);enable-background:new    ;}
	.st2{fill:#3674A8;}
	.st3{fill:#E6B35A;}
	.st4{fill:#FFFFFF;}
	.st5{opacity:0.9;fill:#FFFFFF;enable-background:new    ;}
</style>

<path
   class="st0"
   d="M715.1,226.8L366.9,16l-347,210.8v401.5L367.5,829l347.6-200.7V226.8z"
   id="path6"
   style="fill:#323232;fill-opacity:1;stroke:none;stroke-opacity:1;stroke-width:7.55905512;stroke-miterlimit:4;stroke-dasharray:none" />
<linearGradient
   id="SVGID_1_"
   gradientUnits="userSpaceOnUse"
   x1="366.1405"
   y1="-182.39"
   x2="367.4405"
   y2="281.13"
   gradientTransform="matrix(1 0 0 1 0 60)">
	<stop
   offset="0"
   style="stop-color:#FFFFFF;stop-opacity:0.83"
   id="stop8" />
	<stop
   offset="0.56"
   style="stop-color:#FFFFFF;stop-opacity:0.37"
   id="stop10" />
	<stop
   offset="1"
   style="stop-color:#FFFFFF;stop-opacity:0"
   id="stop12" />
</linearGradient>



















<g
   id="g39718"
   transform="translate(-10.906516)"><g
     id="g4054"
     transform="matrix(0.55865659,0,0,0.55865659,171.79063,100.25432)"
     style="stroke:#ffffff;stroke-width:16.9135;stroke-miterlimit:4;stroke-dasharray:none;stroke-opacity:1"><g
       id="g2769"
       style="stroke:#ffffff;stroke-width:16.9135;stroke-miterlimit:4;stroke-dasharray:none;stroke-opacity:1"><path
         style="fill:none;stroke:#ffffff;stroke-width:16.9135;stroke-linecap:round;stroke-linejoin:miter;stroke-miterlimit:4;stroke-dasharray:none;stroke-opacity:1"
         d="m 233.36755,175.85858 v 131.55539 c 0,0 -12.32971,59.97724 134.13245,117.78603 146.46216,57.80879 137.17273,112.46541 137.17273,112.46541 v 143.61334"
         id="path2137" /><path
         style="fill:none;stroke:#ffffff;stroke-width:16.9135;stroke-linecap:round;stroke-linejoin:miter;stroke-miterlimit:4;stroke-dasharray:none;stroke-opacity:1"
         d="m 343.69995,304.98953 h 53.17377"
         id="path2305" /><path
         style="fill:none;stroke:#ffffff;stroke-width:16.9135;stroke-linecap:round;stroke-linejoin:miter;stroke-miterlimit:4;stroke-dasharray:none;stroke-opacity:1"
         d="M 317.66577,581.65326 H 422.02258"
         id="path2307" /></g><g
       id="g3950"
       style="stroke:#ffffff;stroke-width:16.9135;stroke-miterlimit:4;stroke-dasharray:none;stroke-opacity:1"><g
         id="g3943"
         style="stroke:#ffffff;stroke-width:16.9135;stroke-miterlimit:4;stroke-dasharray:none;stroke-opacity:1"><path
           style="fill:none;stroke:#ffffff;stroke-width:16.9135;stroke-linecap:round;stroke-linejoin:miter;stroke-miterlimit:4;stroke-dasharray:none;stroke-opacity:1"
           d="m 504.53363,175.85858 v 131.55539 c 0,0 12.32971,59.97724 -134.13245,117.78603 -146.46216,57.80879 -137.17273,112.46541 -137.17273,112.46541 v 143.61334"
           id="path2137-6" /></g><circle
         style="fill:none;fill-opacity:1;stroke:#ffffff;stroke-width:16.9135;stroke-linecap:round;stroke-miterlimit:4;stroke-dasharray:none;stroke-opacity:1"
         id="path3714"
         cx="367.5"
         cy="422.5"
         r="349.34808" /></g></g><g
     aria-label="XRONOS"
     id="text5664"
     style="font-size:96px;line-height:1.25;letter-spacing:1px;word-spacing:0px"><path
       d="m 185.09353,567.09507 20.544,28.224 20.544,-28.224 h 9.696 l -25.44,34.56 24.672,33.6 h -9.696 l -19.776,-27.264 -19.776,27.264 h -9.792 l 24.672,-33.6 -25.44,-34.56 z"
       style="font-weight:500;font-family:Raleway;-inkscape-font-specification:'Raleway Medium';fill:#ffffff"
       id="path105" /><path
       d="m 245.32545,635.25507 v -68.16 h 29.184 q 4.512,0 8.256,1.92 3.744,1.824 6.528,4.992 2.784,3.072 4.32,7.008 1.536,3.84 1.536,7.872 0,4.704 -1.824,8.928 -1.728,4.224 -4.992,7.2 -3.168,2.976 -7.488,4.128 l 16.512,26.112 h -9.792 l -15.552,-24.48 h -18.048 v 24.48 z m 8.64,-32.16 h 20.64 q 3.552,0 6.144,-1.92 2.688,-2.016 4.128,-5.28 1.536,-3.264 1.536,-7.008 0,-3.84 -1.728,-7.008 -1.728,-3.264 -4.512,-5.184 -2.784,-1.92 -6.144,-1.92 h -20.064 z"
       id="path107"
       style="fill:#ffffff" /><path
       d="m 337.04541,635.73507 q -7.2,0 -13.056,-2.88 -5.856,-2.88 -10.176,-7.776 -4.224,-4.992 -6.528,-11.136 -2.304,-6.24 -2.304,-12.768 0,-6.816 2.4,-12.96 2.496,-6.24 6.816,-11.04 4.416,-4.896 10.272,-7.68 5.856,-2.88 12.768,-2.88 7.2,0 13.056,2.976 5.856,2.976 10.08,7.968 4.224,4.992 6.528,11.136 2.304,6.144 2.304,12.576 0,6.816 -2.4,13.056 -2.4,6.144 -6.816,11.04 -4.32,4.8 -10.176,7.584 -5.856,2.784 -12.768,2.784 z m -23.328,-34.56 q 0,5.184 1.632,10.08 1.728,4.8 4.8,8.544 3.072,3.744 7.392,5.952 4.32,2.208 9.6,2.208 5.472,0 9.792,-2.304 4.32,-2.304 7.296,-6.144 3.072,-3.84 4.608,-8.64 1.632,-4.8 1.632,-9.696 0,-5.184 -1.728,-9.984 -1.632,-4.8 -4.8,-8.544 -3.072,-3.84 -7.392,-5.952 -4.224,-2.208 -9.408,-2.208 -5.472,0 -9.792,2.304 -4.32,2.208 -7.392,6.048 -2.976,3.84 -4.608,8.64 -1.632,4.704 -1.632,9.696 z"
       style="font-weight:500;font-family:Raleway;-inkscape-font-specification:'Raleway Medium';fill:#ffffff"
       id="path109" /><path
       d="m 390.84533,583.03107 v 52.224 h -8.64 v -68.16 h 7.296 l 41.664,53.28 v -53.184 h 8.64 v 68.064 h -7.872 z"
       style="font-weight:500;font-family:Raleway;-inkscape-font-specification:'Raleway Medium';fill:#ffffff"
       id="path111" /><path
       d="m 484.77338,635.73507 q -7.2,0 -13.056,-2.88 -5.856,-2.88 -10.176,-7.776 -4.224,-4.992 -6.528,-11.136 -2.304,-6.24 -2.304,-12.768 0,-6.816 2.4,-12.96 2.496,-6.24 6.816,-11.04 4.416,-4.896 10.272,-7.68 5.856,-2.88 12.768,-2.88 7.2,0 13.056,2.976 5.856,2.976 10.08,7.968 4.224,4.992 6.528,11.136 2.304,6.144 2.304,12.576 0,6.816 -2.4,13.056 -2.4,6.144 -6.816,11.04 -4.32,4.8 -10.176,7.584 -5.856,2.784 -12.768,2.784 z m -23.328,-34.56 q 0,5.184 1.632,10.08 1.728,4.8 4.8,8.544 3.072,3.744 7.392,5.952 4.32,2.208 9.6,2.208 5.472,0 9.792,-2.304 4.32,-2.304 7.296,-6.144 3.072,-3.84 4.608,-8.64 1.632,-4.8 1.632,-9.696 0,-5.184 -1.728,-9.984 -1.632,-4.8 -4.8,-8.544 -3.072,-3.84 -7.392,-5.952 -4.224,-2.208 -9.408,-2.208 -5.472,0 -9.792,2.304 -4.32,2.208 -7.392,6.048 -2.976,3.84 -4.608,8.64 -1.632,4.704 -1.632,9.696 z"
       style="font-weight:500;font-family:Raleway;-inkscape-font-specification:'Raleway Medium';fill:#ffffff"
       id="path113" /><path
       d="m 569.9653,581.39907 q -1.152,-1.344 -3.072,-2.592 -1.92,-1.248 -4.32,-2.208 -2.4,-1.056 -5.28,-1.632 -2.784,-0.672 -5.856,-0.672 -7.872,0 -11.616,2.976 -3.744,2.976 -3.744,8.16 0,3.648 1.92,5.76 1.92,2.112 5.856,3.456 4.032,1.344 10.176,2.784 7.104,1.536 12.288,3.744 5.184,2.208 7.968,5.952 2.784,3.648 2.784,9.792 0,4.896 -1.92,8.544 -1.824,3.552 -5.184,5.952 -3.36,2.304 -7.872,3.456 -4.512,1.056 -9.792,1.056 -5.184,0 -10.176,-1.056 -4.896,-1.152 -9.312,-3.264 -4.416,-2.112 -8.256,-5.28 l 4.128,-7.296 q 1.536,1.632 3.936,3.264 2.496,1.536 5.568,2.88 3.168,1.344 6.816,2.208 3.648,0.768 7.488,0.768 7.296,0 11.328,-2.592 4.032,-2.688 4.032,-7.776 0,-3.84 -2.304,-6.144 -2.208,-2.304 -6.624,-3.84 -4.416,-1.536 -10.752,-3.072 -6.912,-1.728 -11.616,-3.744 -4.704,-2.112 -7.104,-5.472 -2.304,-3.36 -2.304,-8.736 0,-6.528 3.168,-11.04 3.168,-4.512 8.736,-6.816 5.568,-2.304 12.576,-2.304 4.608,0 8.544,0.96 4.032,0.96 7.488,2.688 3.456,1.728 6.336,4.128 z"
       style="font-weight:500;font-family:Raleway;-inkscape-font-specification:'Raleway Medium';fill:#ffffff"
       id="path115" /></g><path
     style="fill:none;fill-opacity:1;stroke:#ffffff;stroke-width:7.55906;stroke-linecap:butt;stroke-linejoin:miter;stroke-miterlimit:4;stroke-dasharray:none;stroke-opacity:1"
     d="m 245.26272,647.47854 h 52.31787"
     id="path10768" /></g><path
   class="st2"
   d="M734.9,637.4V213.1l-29.3-16.9L427.8,35.8L367.5,1l-60.3,34.8L29.4,196.2L0.1,213.1v424.2l29.3,16.9  l281.3,162.4l56.9,32.8l56.9-32.8l281.3-162.4L734.9,637.4z M29.4,621.5V231l50-28.9L367.5,35.8l0,0l287.2,165.8l50.9,29.4v390.5  L367.5,816.7L29.4,621.5z"
   id="path17"
   style="fill:#323232;fill-opacity:1;stroke:#ffffff;stroke-opacity:1;stroke-width:15.11811024;stroke-miterlimit:4;stroke-dasharray:none;paint-order:stroke markers fill" /></svg>
